<svg xmlns="http://www.w3.org/2000/svg" xmlns:xlink="http://www.w3.org/1999/xlink" width="68.267" height="68.267"><defs><linearGradient id="f"><stop offset="0" style="stop-color:#98c867;stop-opacity:1"/><stop offset="1" style="stop-color:#5c9a33;stop-opacity:1"/></linearGradient><linearGradient id="a"><stop offset="0" style="stop-color:#75b54b;stop-opacity:1"/><stop offset="1" style="stop-color:#75b54b;stop-opacity:.6"/></linearGradient><linearGradient id="b"><stop offset="0" style="stop-color:#000;stop-opacity:.8"/><stop offset="1" style="stop-color:#000;stop-opacity:.35"/></linearGradient><linearGradient xlink:href="#a" id="m" x1="6.734" x2="50.507" y1="28.511" y2="61.774" gradientTransform="matrix(1.26715 0 0 .8979 -.02 -.008)" gradientUnits="userSpaceOnUse"/><linearGradient xlink:href="#b" id="l" x1="14.312" x2="44.097" y1="9.795" y2="82.973" gradientTransform="scale(1.26715 .8979)" gradientUnits="userSpaceOnUse"/><linearGradient id="d"><stop offset="0" style="stop-color:#000;stop-opacity:.0627451"/><stop offset="1" style="stop-color:#322217;stop-opacity:.58823532"/></linearGradient><linearGradient id="e"><stop offset="0" style="stop-color:#a3704b;stop-opacity:1"/><stop offset="1" style="stop-color:#6a4a33;stop-opacity:1"/></linearGradient><linearGradient id="c"><stop offset="0" style="stop-color:#966c4a;stop-opacity:1"/><stop offset="1" style="stop-color:#593d29;stop-opacity:1"/></linearGradient><linearGradient xlink:href="#c" id="g" x1="36.546" x2="86.416" y1="33.805" y2="97.066" gradientUnits="userSpaceOnUse"/><linearGradient xlink:href="#d" id="j" x1="29.867" x2="38.4" y1="29.868" y2="38.401" gradientTransform="translate(-.001)" gradientUnits="userSpaceOnUse"/><linearGradient xlink:href="#b" id="k" x1="14.312" x2="44.097" y1="9.795" y2="82.973" gradientTransform="matrix(1.26715 0 0 .8979 -.829 -1.001)" gradientUnits="userSpaceOnUse"/><radialGradient xlink:href="#e" id="h" cx="34.133" cy="34.133" r="29.867" fx="34.133" fy="34.133" gradientTransform="translate(0 -.001)" gradientUnits="userSpaceOnUse"/><radialGradient xlink:href="#f" id="i" cx="-42.668" cy="-34.134" r="34.133" fx="-42.668" fy="-34.134" gradientTransform="matrix(1.75003 .125 -.01781 .24936 95.394 18.11)" gradientUnits="userSpaceOnUse"/></defs><g transform="translate(0 .001)"><rect width="68.267" height="68.267" rx="8.533" ry="8.533" style="fill:url(#g);fill-opacity:1;stroke:none;stroke-width:17.06666756"/><rect width="59.733" height="59.733" x="4.266" y="4.266" rx="4.267" ry="4.267" style="fill:url(#h);fill-opacity:1;stroke:none;stroke-width:14.93333435"/><path d="m4.267 4.265-.001 8.533h4.268v4.267h8.533v4.266h4.265V8.532H25.6v8.533h4.266v-4.267h4.267v8.533H38.4v-4.266h4.267v4.266h4.268v-4.266H51.2v-4.267h4.267v4.267H64v-12.8z" style="opacity:.6;fill:#593d29;fill-opacity:1;stroke:none;stroke-width:17.06666756"/><path d="M8.533-.002A8.514 8.514 0 0 0 0 8.531V12.8h4.265V8.531h4.268V12.8h8.533v4.266h4.266v-12.8h4.267v8.533h4.266V8.531h4.268v8.534h4.265v-4.266h4.268v4.266h4.267v-4.266H51.2V8.531h4.268V12.8H64V8.531h4.265a8.514 8.514 0 0 0-8.533-8.533zm-3.02 5.514z" style="fill:url(#i);fill-opacity:1;stroke:none;stroke-width:17.06666756"/><path d="M8.532 0A8.514 8.514 0 0 0 0 8.531v51.2a8.516 8.516 0 0 0 8.533 8.535h51.2a8.516 8.516 0 0 0 8.533-8.535v-51.2A8.514 8.514 0 0 0 59.732 0zm0 4.267h51.2a4.257 4.257 0 0 1 4.267 4.265v51.2a4.259 4.259 0 0 1-4.267 4.267h-51.2a4.259 4.259 0 0 1-4.267-4.267v-51.2a4.257 4.257 0 0 1 4.267-4.265z" style="opacity:1;fill:url(#j);fill-opacity:1;stroke:none;stroke-width:17.06666756"/></g><path d="M38.887 44.94c-.975-.8-2.232-2.137-3.772-4.008-2.105 2.673-4.085 4.599-5.94 5.78-2.325 1.424-5.295 2.137-8.909 2.137-4.242 0-7.762-1.124-10.56-3.374-2.953-2.36-4.43-5.489-4.43-9.386 0-3.741 1.477-6.881 4.43-9.42 2.64-2.249 6.192-3.374 10.655-3.374 2.294 0 4.29.334 5.986 1.002 1.98.735 3.646 1.737 4.997 3.007 1.257 1.136 2.514 2.472 3.771 4.008 2.106-2.672 4.086-4.598 5.94-5.779 2.326-1.425 5.296-2.137 8.91-2.137 4.242 0 7.762 1.124 10.56 3.373 2.953 2.36 4.43 5.49 4.43 9.387 0 3.741-1.477 6.88-4.43 9.42-2.64 2.249-6.192 3.373-10.655 3.373-2.294 0-4.29-.334-5.986-1.002-1.698-.601-3.363-1.603-4.997-3.006m-19.14-.468c5.186 0 9.334-2.672 12.446-8.017-3.992-5.834-8.14-8.751-12.445-8.751-3.143 0-5.516.801-7.119 2.405-1.728 1.714-2.592 3.708-2.592 5.979 0 2.494.864 4.51 2.592 6.046 1.76 1.559 4.133 2.338 7.119 2.338m30.735-16.702c-4.682 0-8.83 2.673-12.445 8.017 3.96 5.835 8.108 8.752 12.445 8.752 3.143 0 5.516-.802 7.118-2.405 1.729-1.715 2.593-3.708 2.593-5.98 0-2.493-.864-4.509-2.593-6.045-1.76-1.56-4.132-2.339-7.118-2.339" style="font-style:normal;font-variant:normal;font-weight:400;font-stretch:normal;font-size:76.18933868px;line-height:125%;font-family:&quot;DejaVu Sans&quot;;-inkscape-font-specification:&quot;DejaVu Sans&quot;;letter-spacing:0;word-spacing:0;fill:url(#k);fill-opacity:1;stroke:none;stroke-width:1.06666672;opacity:.5"/><path d="M39.715 45.942c-.974-.802-2.231-2.138-3.77-4.008-2.107 2.672-4.086 4.598-5.94 5.779-2.326 1.425-5.296 2.137-8.91 2.137-4.243 0-7.763-1.124-10.56-3.373-2.954-2.36-4.43-5.49-4.43-9.387 0-3.741 1.476-6.88 4.43-9.42 2.64-2.249 6.191-3.373 10.654-3.373 2.294 0 4.29.334 5.987 1.002 1.98.735 3.645 1.737 4.997 3.006 1.257 1.136 2.514 2.472 3.771 4.009 2.106-2.673 4.086-4.599 5.94-5.78 2.325-1.425 5.295-2.137 8.91-2.137 4.242 0 7.762 1.124 10.559 3.374 2.954 2.36 4.43 5.489 4.43 9.386 0 3.741-1.476 6.881-4.43 9.42-2.64 2.249-6.191 3.374-10.654 3.374-2.294 0-4.29-.334-5.987-1.003-1.697-.6-3.363-1.603-4.997-3.006m-19.139-.467c5.186 0 9.334-2.673 12.445-8.017-3.99-5.835-8.14-8.752-12.445-8.752-3.142 0-5.515.802-7.118 2.405-1.728 1.715-2.593 3.708-2.593 5.98 0 2.493.865 4.509 2.593 6.045 1.76 1.56 4.133 2.339 7.118 2.339m30.736-16.702c-4.683 0-8.831 2.672-12.445 8.017 3.96 5.834 8.108 8.751 12.445 8.751 3.142 0 5.515-.801 7.118-2.405 1.728-1.714 2.593-3.708 2.593-5.979 0-2.494-.865-4.51-2.593-6.046-1.76-1.559-4.133-2.338-7.118-2.338" style="font-style:normal;font-variant:normal;font-weight:400;font-stretch:normal;font-size:76.18933868px;line-height:125%;font-family:&quot;DejaVu Sans&quot;;-inkscape-font-specification:&quot;DejaVu Sans&quot;;letter-spacing:0;word-spacing:0;fill:url(#l);fill-opacity:1;stroke:none;stroke-width:1.06666672;opacity:.5"/><path d="M37.905 42.952c-.975-.802-2.232-2.138-3.772-4.009-2.105 2.673-4.085 4.599-5.94 5.78-2.325 1.424-5.295 2.137-8.909 2.137-4.243 0-7.762-1.124-10.56-3.374-2.953-2.36-4.43-5.489-4.43-9.386 0-3.741 1.477-6.881 4.43-9.42 2.64-2.249 6.192-3.374 10.654-3.374 2.295 0 4.29.334 5.987 1.002 1.98.735 3.646 1.737 4.997 3.007 1.257 1.136 2.514 2.472 3.771 4.008 2.106-2.672 4.086-4.598 5.94-5.779 2.326-1.425 5.295-2.137 8.91-2.137 4.242 0 7.762 1.124 10.559 3.373 2.954 2.36 4.431 5.49 4.431 9.387 0 3.741-1.477 6.88-4.431 9.42-2.64 2.249-6.191 3.373-10.654 3.373-2.294 0-4.29-.334-5.987-1.002-1.697-.601-3.362-1.603-4.996-3.006m-19.14-.468c5.186 0 9.334-2.672 12.446-8.017-3.992-5.834-8.14-8.751-12.445-8.751-3.143 0-5.516.801-7.119 2.405-1.728 1.714-2.592 3.708-2.592 5.979 0 2.494.864 4.51 2.592 6.046 1.76 1.559 4.133 2.338 7.119 2.338M49.5 25.782c-4.683 0-8.83 2.673-12.445 8.017 3.96 5.835 8.108 8.752 12.445 8.752 3.143 0 5.515-.802 7.118-2.405 1.729-1.715 2.593-3.708 2.593-5.98 0-2.493-.864-4.509-2.593-6.045-1.76-1.56-4.132-2.339-7.118-2.339" style="font-style:normal;font-variant:normal;font-weight:400;font-stretch:normal;font-size:76.18933868px;line-height:125%;font-family:&quot;DejaVu Sans&quot;;-inkscape-font-specification:&quot;DejaVu Sans&quot;;letter-spacing:0;word-spacing:0;fill:url(#m);fill-opacity:1;stroke:none;stroke-width:1.06666672"/><path d="M19.4 21.167c-4.463 0-8.027 1.15-10.667 3.4-2.954 2.538-4.433 5.658-4.433 9.4 0 3.897 1.48 7.04 4.433 9.4-1.622-2.045-2.433-4.512-2.433-7.4 0-3.742 1.48-6.862 4.433-9.4 2.64-2.25 6.204-3.4 10.667-3.4 2.294 0 4.303.365 6 1.033 1.98.735 3.615 1.73 4.967 3 .068.062.131.137.2.2a33.602 33.602 0 0 0-2.2-2.2c-1.352-1.27-2.987-2.265-4.967-3-1.697-.668-3.706-1.033-6-1.033zm29.6.1c-3.614 0-6.574.741-8.9 2.166-1.818 1.158-3.923 3.292-5.983 5.884a41.96 41.96 0 0 1 1.866 2.133c2.106-2.672 4.263-4.836 6.117-6.017 2.326-1.425 5.286-2.166 8.9-2.166 4.243 0 7.77 1.15 10.567 3.4a12.325 12.325 0 0 0-2-2c-2.797-2.25-6.324-3.4-10.567-3.4Zm8.867 8.1c.909 1.305 1.366 2.857 1.366 4.666 0 2.272-.871 4.286-2.6 6-1.603 1.604-3.957 2.4-7.1 2.4-2.653 0-5.32-1.032-7.833-3.216 3.137 3.509 6.47 5.216 9.833 5.216 3.143 0 5.497-.796 7.1-2.4 1.729-1.714 2.6-3.728 2.6-6 0-2.494-.871-4.496-2.6-6.033-.25-.22-.492-.444-.766-.633zm-26.634 4.966c-3.111 5.345-7.248 8.034-12.433 8.034-2.58 0-4.543-.352-6.208-1.517.349.506.59.752 1.075 1.183 1.76 1.56 4.147 2.334 7.133 2.334 5.185 0 9.322-2.69 12.433-8.034zm4.934 6.5c-.041.052-.093.082-.134.134.688.744 1.307 1.36 1.834 1.8-.53-.581-1.079-1.179-1.7-1.934z" style="font-style:normal;font-weight:400;font-size:76.18933868px;line-height:125%;font-family:Sans;letter-spacing:0;word-spacing:0;opacity:.3;fill:#cf0;fill-opacity:1;stroke:none;stroke-width:1.06666672"/><path d="M19.73 21.547c-4.462 0-8.026 1.151-10.666 3.4-2.954 2.539-4.434 5.659-4.434 9.4 0 3.897 1.48 7.04 4.434 9.4.043.035.09.066.133.1-2.24-2.228-3.367-5.04-3.367-8.433 0-3.741 1.48-6.861 4.434-9.4 2.64-2.25 6.204-3.4 10.666-3.4 2.295 0 4.303.365 6 1.033 1.871.695 3.424 1.629 4.734 2.8-.314-.309-.653-.583-.967-.867-1.351-1.269-2.987-2.265-4.967-3-1.697-.668-3.705-1.033-6-1.033zm29.6.1c-3.614 0-6.574.742-8.9 2.167-1.813 1.154-3.963 3.235-6.016 5.816.355.403.71.8 1.066 1.234 2.106-2.672 4.296-4.803 6.15-5.984 2.326-1.425 5.286-2.166 8.9-2.166 4.225 0 7.743 1.137 10.534 3.366a12.836 12.836 0 0 0-1.167-1.033c-2.797-2.249-6.324-3.4-10.567-3.4zm8.234 7.333c1.323 1.45 2 3.251 2 5.434 0 2.271-.872 4.285-2.6 6-1.603 1.603-3.958 2.4-7.1 2.4-2.407 0-4.777-.904-7.067-2.7 2.67 2.484 5.437 3.766 8.267 3.766 3.142 0 5.497-.796 7.1-2.4 1.728-1.714 2.6-3.728 2.6-6 0-2.494-.872-4.496-2.6-6.033-.186-.164-.4-.32-.6-.467zm-26 5.734c-3.111 5.344-7.248 8.033-12.434 8.033-2.612 0-4.759-.606-6.433-1.8.166.177.314.368.5.533 1.76 1.56 4.148 2.334 7.133 2.334 5.186 0 9.323-2.689 12.434-8.034zm4.133 5.566c-.046.06-.087.109-.133.167 1.038 1.19 1.975 2.17 2.7 2.767.062.053.137.08.2.133-.792-.781-1.706-1.778-2.767-3.067z" style="font-style:normal;font-weight:400;font-size:76.18933868px;line-height:125%;font-family:Sans;letter-spacing:0;word-spacing:0;opacity:.6;fill:#cf0;fill-opacity:1;stroke:none;stroke-width:1.06666672"/></svg>