<svg id="Icons" viewBox="0 0 24 24" xmlns="http://www.w3.org/2000/svg">
    <defs>
        <style>
            .cls-1{fill:#232323}
        </style>
    </defs>
    <path class="cls-1" d="M6 24h12a4 4 0 0 0 4-4v-9.343a4.968 4.968 0 0 0-.433-2.016.85.85 0 0 0-.055-.1 4.976 4.976 0 0 0-.977-1.416l-5.656-5.661a4.981 4.981 0 0 0-1.417-.977c-.035-.018-.066-.04-.1-.055A4.984 4.984 0 0 0 11.343 0H6a4 4 0 0 0-4 4v16a4 4 0 0 0 4 4ZM18.586 8H16a2 2 0 0 1-2-2V3.414ZM4 4a2 2 0 0 1 2-2h5.343a3 3 0 0 1 .657.078V6a4 4 0 0 0 4 4h3.92a2.953 2.953 0 0 1 .08.657V20a2 2 0 0 1-2 2H6a2 2 0 0 1-2-2Z"/>
    <path class="cls-1" d="M7 20h10a1 1 0 0 0 0-2H7a1 1 0 0 0 0 2ZM7 16h4a1 1 0 0 0 0-2H7a1 1 0 0 0 0 2Z"/>
</svg>
