<svg xmlns="http://www.w3.org/2000/svg" class="noPhoneImg">
  <style type="text/css">
    .st0 {
      fill: white;
    }

    .st1 {
      fill: black;
    }

    .st2 {
      fill: white;
    }

    .st3 {
      fill: red;
    }
  </style>
  <g>
    <rect class="st0" height="56" id="XMLID_5_" width="35.2" x="3.4" y="23"/>
  </g>
  <g>
    <path class="st1" d="M40,23H2v-1c0-3.3,2.7-6,6-6h26c3.3,0,6,2.7,6,6V23z" id="XMLID_1_"/>
    <path class="st1" d="M34,86H8c-3.3,0-6-2.7-6-6v-1h38v1C40,83.3,37.3,86,34,86z" id="XMLID_2_"/>
    <rect class="st1" height="56" id="XMLID_3_" width="1.4" x="2" y="23"/>
    <rect class="st1" height="56" id="XMLID_4_" width="1.4" x="38.6" y="23"/>
    <path class="st2" d="M33.9,20H8.1c-0.6,0-1-0.5-1-1l0,0c0-0.6,0.5-1,1-1h25.8c0.6,0,1,0.5,1,1l0,0   C34.9,19.6,34.5,20,33.9,20z" id="XMLID_6_"/>
    <g id="Warstwa_4_1_">
      <circle class="st3" cx="21" cy="51" id="XMLID_8_" r="15"/>
      <g id="XMLID_11_">
        <rect class="st0" height="3.7" id="XMLID_9_" transform="matrix(0.7071 0.7071 -0.7071 0.7071 42.2278 0.1234)" width="15" x="13.5" y="49.2"/>
        <rect class="st0" height="3.7" id="XMLID_10_" transform="matrix(-0.7071 0.7071 -0.7071 -0.7071 71.8259 72.1786)" width="15" x="13.5" y="49.1"/>
      </g>
    </g>
  </g>
</svg>