<svg height="500" width="500" xml:space="preserve" xmlns="http://www.w3.org/2000/svg">
    <path d="M323.448 142H177.384C160.355 142 146 156.658 146 174.243v111.055C146 302.883 160.355 317 177.384 317h52.907L293 359.202V317h30.448C340.477 317 354 302.883 354 285.299V174.243C354 156.658 340.477 142 323.448 142zM336 285.299c0 7.241-5.54 13.701-12.552 13.701H275v25.702L235.66 299h-58.276c-7.012 0-12.384-6.461-12.384-13.701V174.243c0-7.241 5.372-13.243 12.384-13.243h146.063c7.012 0 12.552 6.002 12.552 13.243v111.056z"/>
    <path d="M292.179 191.347a3.552 3.552 0 0 0-5.137-.098l-48.932 48.69a3.55 3.55 0 0 1-4.914.122l-23.361-21.107a3.553 3.553 0 0 0-5.127.353l-7.178 8.471c-1.321 1.559-1.168 3.93.342 5.294l35.917 32.451a3.55 3.55 0 0 0 4.914-.122l60.945-60.643c1.445-1.438 1.488-3.813.095-5.305l-7.564-8.106z"/>
</svg>
